<svg width="637" height="251" viewBox="0 0 637 251" fill="none" xmlns="http://www.w3.org/2000/svg">
<g clip-path="url(#clip0_9_902)">
<path fill-rule="evenodd" clip-rule="evenodd" d="M208.148 208.49H212.011V184.337H208.148V208.49ZM215.585 208.49H219.256V196.317C219.256 193.998 220.704 192.742 222.153 192.742C223.988 192.742 224.664 193.612 224.664 196.027V208.49H228.335V194.771C228.335 191.1 226.596 189.844 223.795 189.844C221.767 189.844 220.028 190.81 219.159 192.453H219.062V190.327H215.585V208.49ZM243.113 195.544V194.771C243.113 192.549 242.05 189.844 237.414 189.844C233.647 189.844 231.232 191.39 231.232 194.868C231.232 197.766 232.392 199.119 235.096 200.085L238.09 201.148C239.346 201.631 240.119 202.5 240.119 203.853C240.119 205.495 239.153 206.558 237.124 206.558C234.999 206.558 234.323 205.399 234.323 203.273V202.694H231.039V203.37C231.039 206.848 232.392 208.973 237.028 208.973C240.698 208.973 243.596 207.331 243.596 203.466C243.596 200.568 242.34 199.119 239.636 198.249L237.318 197.476C235.386 196.8 234.71 196.22 234.71 194.771C234.71 193.129 235.869 192.453 237.318 192.453C239.249 192.453 239.732 193.805 239.732 195.254V195.737H243.113V195.544ZM244.658 192.936H247.17V204.239C247.17 207.911 248.425 208.587 250.84 208.587C251.999 208.587 252.965 208.49 253.738 208.297V205.592C253.351 205.689 252.965 205.689 252.385 205.689C251.13 205.689 250.743 205.205 250.743 203.756V192.936H253.738V190.327H250.743V185.11H247.073V190.327H244.562V192.936H244.658ZM255.766 208.49H259.436V190.327H255.766V208.49ZM255.766 187.719H259.436V184.047H255.766V187.719ZM261.561 192.936H264.072V204.239C264.072 207.911 265.328 208.587 267.743 208.587C268.902 208.587 269.868 208.49 270.641 208.297V205.592C270.351 205.689 269.868 205.689 269.288 205.689C268.033 205.689 267.646 205.205 267.646 203.756V192.936H270.641V190.327H267.646V185.11H263.976V190.327H261.465V192.936H261.561ZM281.845 208.49H285.322V190.327H281.652V203.08C281.652 205.109 280.203 206.075 278.657 206.075C277.112 206.075 276.146 205.399 276.146 203.37V190.327H272.476V203.08C272.476 207.814 274.311 209.07 277.015 209.07C279.044 209.07 280.782 208.104 281.652 206.461H281.748V208.49H281.845ZM287.157 192.936H289.668V204.239C289.668 207.911 290.924 208.587 293.339 208.587C294.498 208.587 295.464 208.49 296.236 208.297V205.592C295.85 205.689 295.464 205.689 294.884 205.689C293.629 205.689 293.242 205.205 293.242 203.756V192.936H296.236V190.327H293.242V185.11H289.572V190.327H287.061V192.936H287.157ZM297.492 199.409C297.492 205.012 299.231 208.973 304.253 208.973C309.276 208.973 311.014 205.012 311.014 199.409C311.014 193.805 309.566 189.844 304.253 189.844C298.941 189.844 297.492 193.709 297.492 199.409ZM301.162 199.409C301.162 195.351 301.645 192.549 304.253 192.549C306.958 192.549 307.441 195.351 307.441 199.409C307.441 204.046 306.958 206.268 304.253 206.268C301.549 206.268 301.162 204.046 301.162 199.409ZM325.986 194.481V187.235H328.69C330.815 187.235 332.554 187.815 332.554 190.714C332.554 192.936 331.298 194.578 328.98 194.578H325.986V194.481ZM325.986 205.592V197.283H329.559C331.781 197.283 333.326 198.732 333.326 201.341C333.326 204.143 332.071 205.592 329.753 205.592H325.986ZM322.122 208.49H329.753C334.292 208.49 337.19 205.882 337.19 201.921C337.19 197.863 335.548 196.22 332.843 195.737V195.641C335.258 194.868 336.417 193.129 336.417 190.134C336.417 185.883 333.52 184.24 329.946 184.24H322.122V208.49ZM340.088 208.49H343.758V197.573C343.758 194.192 345.786 193.419 347.428 193.419C348.008 193.419 348.684 193.515 348.974 193.612V189.941C348.78 189.844 348.491 189.844 348.104 189.844C346.076 189.844 344.724 191.1 343.854 193.129H343.758V190.327H340.088V208.49ZM362.399 194.288C362.399 191.1 359.792 189.844 356.604 189.844C351.775 189.844 350.229 191.97 350.229 195.834H353.706C353.706 194.095 354.093 192.356 356.508 192.356C358.439 192.356 359.019 193.419 359.019 195.061C359.019 196.607 358.246 196.993 356.894 197.38L354.093 198.153C351.582 198.926 349.843 199.795 349.843 203.853C349.843 207.331 351.678 208.973 354.576 208.973C356.701 208.973 358.15 208.104 359.115 206.268H359.212C359.309 208.007 360.661 208.684 362.303 208.684C362.979 208.684 363.655 208.49 364.138 208.2V205.882C364.041 205.978 363.752 205.978 363.558 205.978C362.979 205.978 362.593 205.399 362.593 204.722V194.288H362.399ZM359.019 201.921C359.019 204.626 357.956 206.268 355.735 206.268C354.189 206.268 353.513 205.012 353.513 203.563C353.513 202.21 353.996 201.148 354.962 200.665C356.025 200.182 358.053 199.699 359.019 199.022V201.921ZM377.467 195.544V194.771C377.467 192.549 376.405 189.844 371.768 189.844C368.002 189.844 365.587 191.39 365.587 194.868C365.587 197.766 366.746 199.119 369.45 200.085L372.445 201.148C373.7 201.631 374.473 202.5 374.473 203.853C374.473 205.495 373.507 206.558 371.479 206.558C369.354 206.558 368.678 205.399 368.678 203.273V202.694H365.394V203.37C365.394 206.848 366.746 208.973 371.382 208.973C375.052 208.973 377.95 207.331 377.95 203.466C377.95 200.568 376.694 199.119 373.99 198.249L371.672 197.476C369.74 196.8 369.064 196.22 369.064 194.771C369.064 193.129 370.223 192.453 371.672 192.453C373.604 192.453 374.087 193.805 374.087 195.254V195.737H377.467V195.544ZM380.751 208.49H384.422V190.327H380.751V208.49ZM380.751 187.719H384.422V184.047H380.751V187.719ZM388.188 208.49H391.859V184.337H388.188V208.49ZM408.182 199.892V197.96C408.182 192.936 406.83 189.844 401.807 189.844C396.109 189.844 395.046 194.868 395.046 199.699C395.046 208.104 398.717 208.973 401.711 208.973C405.671 208.973 408.086 206.461 408.086 202.404H404.609C404.609 203.466 404.319 206.461 401.711 206.461C399.006 206.461 398.62 203.37 398.62 200.955V199.892H408.182ZM398.717 197.38V196.993C398.717 194.578 399.393 192.356 401.807 192.356C403.836 192.356 404.609 194.095 404.609 196.414V197.38H398.717ZM411.37 208.49H415.04V190.327H411.37V208.49ZM411.37 187.719H415.04V184.047H411.37V187.719ZM418.71 208.49H422.381V197.573C422.381 194.192 424.409 193.419 426.051 193.419C426.631 193.419 427.307 193.515 427.597 193.612V189.941C427.403 189.844 427.114 189.844 426.727 189.844C424.699 189.844 423.347 191.1 422.477 193.129H422.381V190.327H418.71V208.49ZM428.659 199.409C428.659 205.012 430.398 208.973 435.42 208.973C440.443 208.973 442.181 205.012 442.181 199.409C442.181 193.805 440.733 189.844 435.42 189.844C430.108 189.844 428.659 193.709 428.659 199.409ZM432.329 199.409C432.329 195.351 432.812 192.549 435.42 192.549C438.125 192.549 438.608 195.351 438.608 199.409C438.608 204.046 438.125 206.268 435.42 206.268C432.716 206.268 432.329 204.046 432.329 199.409ZM462.368 208.49H465.846V184.337H462.175V192.453H462.079C461.402 190.81 459.954 189.844 457.925 189.844C455.124 189.844 452.323 191.1 452.323 199.215C452.323 205.495 454.062 208.973 458.312 208.973C460.919 208.973 461.789 207.428 462.272 206.268H462.368V208.49ZM462.368 199.602C462.368 203.466 461.789 206.075 459.277 206.075C456.766 206.075 456.187 203.466 456.187 199.312C456.187 194.385 456.959 192.742 458.988 192.742C461.885 192.742 462.368 195.254 462.368 199.602ZM481.976 199.892V197.96C481.976 192.936 480.624 189.844 475.601 189.844C469.902 189.844 468.84 194.868 468.84 199.699C468.84 208.104 472.51 208.973 475.504 208.973C479.464 208.973 481.879 206.461 481.879 202.404H478.402C478.402 203.466 478.112 206.461 475.504 206.461C472.8 206.461 472.414 203.37 472.414 200.955V199.892H481.976ZM472.51 197.38V196.993C472.51 194.578 473.186 192.356 475.601 192.356C477.629 192.356 478.402 194.095 478.402 196.414V197.38H472.51ZM493.18 208.49H497.044V184.337H493.18V208.49ZM500.617 208.49H504.288V196.317C504.288 193.998 505.736 192.742 507.185 192.742C509.02 192.742 509.697 193.612 509.697 196.027V208.49H513.367V194.771C513.367 191.1 511.628 189.844 508.827 189.844C506.799 189.844 505.06 190.81 504.191 192.453H504.094V190.327H500.617V208.49ZM518.003 208.49H521.674V193.032H524.668V190.327H521.577V188.781C521.577 187.525 522.157 187.042 523.509 187.042H524.571V184.24C523.992 184.144 523.316 184.144 522.543 184.144C519.549 184.144 517.907 185.207 517.907 188.685V190.327H515.395V193.032H517.907V208.49H518.003ZM525.537 199.409C525.537 205.012 527.276 208.973 532.298 208.973C537.417 208.973 539.059 205.012 539.059 199.409C539.059 193.805 537.611 189.844 532.298 189.844C526.986 189.844 525.537 193.709 525.537 199.409ZM529.207 199.409C529.207 195.351 529.69 192.549 532.298 192.549C535.003 192.549 535.486 195.351 535.486 199.409C535.486 204.046 535.003 206.268 532.298 206.268C529.69 206.268 529.207 204.046 529.207 199.409ZM541.861 208.49H545.531V197.573C545.531 194.192 547.559 193.419 549.201 193.419C549.781 193.419 550.457 193.515 550.747 193.612V189.941C550.553 189.844 550.264 189.844 549.877 189.844C547.849 189.844 546.497 191.1 545.627 193.129H545.531V190.327H541.861V208.49ZM553.065 208.49H556.735V196.317C556.735 193.998 558.184 192.742 559.633 192.742C561.178 192.742 561.854 193.612 561.854 196.027V208.49H565.525V196.317C565.525 193.998 566.973 192.742 568.422 192.742C569.871 192.742 570.644 193.612 570.644 196.027V208.49H574.314V194.675C574.314 191.197 572.479 189.844 569.871 189.844C567.65 189.844 566.297 190.907 565.235 192.646C564.655 191.1 563.593 189.844 560.985 189.844C559.246 189.844 557.508 190.81 556.639 192.453H556.542V190.327H553.065V208.49ZM589.768 194.288C589.768 191.1 587.16 189.844 583.973 189.844C579.144 189.844 577.598 191.97 577.598 195.834H581.075C581.075 194.095 581.365 192.356 583.876 192.356C585.808 192.356 586.388 193.419 586.388 195.061C586.388 196.607 585.615 196.993 584.263 197.38L581.462 198.153C578.95 198.926 577.212 199.795 577.212 203.853C577.212 207.331 579.047 208.973 581.945 208.973C584.07 208.973 585.518 208.104 586.484 206.268H586.581C586.677 208.007 588.03 208.684 589.672 208.684C590.348 208.684 591.024 208.49 591.507 208.2V205.882C591.41 205.978 591.121 205.978 590.927 205.978C590.348 205.978 589.962 205.399 589.962 204.722V194.288H589.768ZM586.388 201.921C586.388 204.626 585.325 206.268 583.104 206.268C581.558 206.268 580.882 205.012 580.882 203.563C580.882 202.21 581.365 201.148 582.331 200.665C583.394 200.182 585.422 199.699 586.388 199.022V201.921ZM597.302 211.389L597.882 211.968C598.268 211.872 598.654 211.679 599.137 211.679C600.007 211.679 600.683 212.162 600.683 212.934C600.683 213.997 599.62 214.19 598.751 214.19C597.978 214.19 597.109 213.997 596.529 213.707L595.95 215.06C596.723 215.35 598.075 215.64 599.331 215.64C601.552 215.64 603.291 214.384 603.291 212.645C603.291 211.292 602.132 210.133 600.683 210.133C600.2 210.133 599.717 210.229 599.331 210.326L600.49 208.78C604.16 208.394 605.512 205.785 605.705 201.824H602.228C602.228 204.529 601.455 206.268 599.427 206.172C596.819 206.172 596.336 203.37 596.336 199.312C596.336 195.254 596.819 192.453 599.427 192.453C601.552 192.356 602.035 194.578 602.035 196.317H605.705C605.705 194.095 604.933 189.747 599.427 189.747C594.115 189.747 592.666 193.709 592.666 199.312C592.666 204.722 594.018 208.49 598.751 208.78L597.302 211.389ZM620.483 194.288C620.483 191.1 617.876 189.844 614.688 189.844C609.859 189.844 608.313 191.97 608.313 195.834H611.79C611.79 194.095 612.177 192.356 614.592 192.356C616.523 192.356 617.103 193.419 617.103 195.061C617.103 196.607 616.33 196.993 614.978 197.38L612.177 198.153C609.666 198.926 607.927 199.795 607.927 203.853C607.927 207.331 609.762 208.973 612.66 208.973C614.785 208.973 616.234 208.104 617.199 206.268H617.296C617.393 208.007 618.745 208.684 620.387 208.684C621.063 208.684 621.739 208.49 622.222 208.2V205.882C622.125 205.978 621.836 205.978 621.642 205.978C621.063 205.978 620.677 205.399 620.677 204.722V194.288H620.483ZM617.006 201.921C617.006 204.626 615.944 206.268 613.722 206.268C612.177 206.268 611.501 205.012 611.501 203.563C611.501 202.21 611.984 201.148 612.95 200.665C614.012 200.182 616.04 199.699 617.006 199.022V201.921ZM617.586 183.564C617.586 184.144 617.393 184.82 616.523 184.82C615.944 184.82 615.268 184.53 614.592 184.24C613.915 183.951 613.336 183.661 612.756 183.661C610.245 183.661 609.376 186.269 609.376 187.719H611.501C611.501 187.042 611.887 186.366 612.66 186.366C613.722 186.366 615.171 187.525 616.716 187.525C618.648 187.525 619.614 185.013 619.614 183.564H617.586ZM623.478 199.409C623.478 205.012 625.216 208.973 630.239 208.973C635.261 208.973 637 205.012 637 199.409C637 193.805 635.551 189.844 630.239 189.844C624.926 189.844 623.478 193.709 623.478 199.409ZM627.148 199.409C627.148 195.351 627.631 192.549 630.239 192.549C632.943 192.549 633.426 195.351 633.426 199.409C633.426 204.046 632.943 206.268 630.239 206.268C627.534 206.268 627.148 204.046 627.148 199.409ZM220.704 236.122V234.189C220.704 229.165 219.352 226.074 214.329 226.074C208.631 226.074 207.568 231.098 207.568 235.928C207.568 244.334 211.239 245.203 214.233 245.203C218.193 245.203 220.608 242.691 220.608 238.633H217.131C217.131 239.696 216.841 242.691 214.233 242.691C211.528 242.691 211.239 239.6 211.239 237.184V236.122H220.704ZM211.239 233.706V233.32C211.239 231.001 211.915 228.682 214.233 228.682C216.261 228.682 217.034 230.421 217.034 232.74V233.706H211.239ZM223.892 244.817H227.562V232.644C227.562 230.228 229.011 229.069 230.46 229.069C232.005 229.069 232.681 229.938 232.681 232.354V244.817H236.352V232.644C236.352 230.228 237.8 229.069 239.249 229.069C240.698 229.069 241.471 229.938 241.471 232.354V244.817H245.141V231.001C245.141 227.523 243.306 226.17 240.698 226.17C238.477 226.17 237.124 227.137 236.062 228.972C235.482 227.426 234.42 226.17 231.812 226.17C230.073 226.17 228.335 227.137 227.466 228.779H227.369V226.654H223.892V244.817ZM268.033 236.122V236.508C268.033 238.73 267.646 242.305 264.459 242.305C261.658 242.305 260.306 240.373 260.306 232.547C260.306 224.818 261.561 222.982 264.459 222.982C267.26 222.886 267.936 225.494 267.936 227.716V228.103H271.8V227.62C271.8 225.108 271.413 220.084 264.555 220.084C258.47 220.084 256.539 224.045 256.539 232.644C256.539 241.242 258.47 245.203 264.555 245.203C270.254 245.203 271.993 240.952 271.993 236.605V236.122H268.033ZM274.601 244.817H278.271V226.654H274.601V244.817ZM274.601 224.045H278.271V220.374H274.601V224.045ZM294.498 236.122V234.189C294.498 229.165 293.146 226.074 288.123 226.074C282.424 226.074 281.362 231.098 281.362 235.928C281.362 244.334 285.032 245.203 288.026 245.203C291.987 245.203 294.401 242.691 294.401 238.633H290.924C290.924 239.696 290.634 242.691 288.026 242.691C285.322 242.691 285.032 239.6 285.032 237.184V236.122H294.498ZM285.032 233.706V233.32C285.032 231.001 285.708 228.682 288.026 228.682C290.055 228.682 290.827 230.421 290.827 232.74V233.706H285.032ZM283.487 224.238H286.384L288.316 221.243L290.151 224.238H293.242L290.248 219.408H286.578L283.487 224.238ZM297.492 244.817H301.162V232.644C301.162 230.228 302.611 229.069 304.06 229.069C305.895 229.069 306.571 229.938 306.571 232.354V244.817H310.242V231.098C310.242 227.426 308.503 226.17 305.702 226.17C303.674 226.17 301.935 227.137 301.066 228.779H300.969V226.654H297.492V244.817ZM322.605 238.15C322.605 240.856 321.832 242.595 319.804 242.498C317.196 242.498 316.713 239.696 316.713 235.638C316.713 231.581 317.196 228.779 319.804 228.779C321.929 228.682 322.412 230.904 322.412 232.644H326.082C326.082 230.421 325.309 226.074 319.804 226.074C314.492 226.074 313.043 230.035 313.043 235.638C313.043 241.242 314.492 245.203 319.804 245.203C324.344 245.203 325.792 242.498 325.986 238.15H322.605ZM328.98 244.817H332.65V226.654H328.98V244.817ZM328.98 224.045H332.65V220.374H328.98V224.045ZM348.201 230.615C348.201 227.426 345.593 226.17 342.406 226.17C337.576 226.17 336.031 228.296 336.031 232.16H339.508C339.508 230.421 339.798 228.682 342.309 228.682C344.241 228.682 344.82 229.745 344.82 231.388C344.82 232.933 344.048 233.32 342.695 233.706L339.894 234.479C337.383 235.252 335.644 236.122 335.644 240.179C335.644 243.657 337.48 245.3 340.377 245.3C342.502 245.3 343.951 244.43 344.917 242.595H345.014C345.11 244.334 346.462 245.01 348.104 245.01C348.78 245.01 349.457 244.817 349.939 244.527V242.208C349.843 242.305 349.553 242.305 349.36 242.305C348.78 242.305 348.394 241.725 348.394 241.049V230.615H348.201ZM344.724 238.247C344.724 240.952 343.661 242.595 341.44 242.595C339.894 242.595 339.218 241.339 339.218 239.889C339.218 238.537 339.701 237.474 340.667 236.991C341.73 236.508 343.758 236.025 344.724 235.349V238.247ZM372.638 236.122V234.189C372.638 229.165 371.286 226.074 366.263 226.074C360.564 226.074 359.502 231.098 359.502 235.928C359.502 244.334 363.172 245.203 366.166 245.203C370.126 245.203 372.541 242.691 372.541 238.633H369.064C369.064 239.696 368.774 242.691 366.166 242.691C363.462 242.691 363.172 239.6 363.172 237.184V236.122H372.638ZM363.172 233.706V233.32C363.172 231.001 363.848 228.682 366.166 228.682C368.195 228.682 368.967 230.421 368.967 232.74V233.706H363.172ZM386.74 244.817H390.603V223.948H396.205V220.664H380.944V223.948H386.643V244.817H386.74ZM408.375 236.122H398.91V237.184C398.91 239.6 399.2 242.691 401.904 242.691C404.512 242.691 404.802 239.696 404.802 238.633H408.279C408.279 242.691 405.864 245.203 401.904 245.203C398.91 245.203 395.239 244.334 395.239 235.928C395.239 231.194 396.205 226.074 402.001 226.074C407.023 226.074 408.375 229.069 408.375 234.189V236.122ZM398.813 233.706H404.705V232.74C404.705 230.421 403.932 228.682 401.904 228.682C399.586 228.682 398.91 231.001 398.91 233.32V233.706H398.813ZM420.159 238.15C420.159 240.856 419.387 242.595 417.358 242.498C414.75 242.498 414.267 239.696 414.267 235.638C414.267 231.581 414.75 228.779 417.358 228.779C419.483 228.682 419.966 230.904 419.966 232.644H423.636C423.636 230.421 422.864 226.074 417.358 226.074C412.046 226.074 410.597 230.035 410.597 235.638C410.597 241.242 412.046 245.203 417.358 245.203C421.898 245.203 423.347 242.498 423.54 238.15H420.159ZM426.341 244.817H430.011V232.644C430.011 230.228 431.46 229.069 432.909 229.069C434.744 229.069 435.42 229.938 435.42 232.354V244.817H439.091V231.098C439.091 227.426 437.352 226.17 434.551 226.17C432.523 226.17 430.784 227.137 429.915 228.779H429.818V226.654H426.341V244.817ZM441.892 235.735C441.892 241.339 443.63 245.3 448.653 245.3C453.675 245.3 455.414 241.339 455.414 235.735C455.414 230.132 453.965 226.17 448.653 226.17C443.34 226.17 441.892 230.035 441.892 235.735ZM445.562 235.735C445.562 231.677 446.045 228.876 448.653 228.876C451.357 228.876 451.84 231.677 451.84 235.735C451.84 240.373 451.357 242.595 448.653 242.595C446.045 242.595 445.562 240.276 445.562 235.735ZM458.408 244.817H462.079V220.664H458.408V244.817ZM464.976 235.735C464.976 241.339 466.715 245.3 471.737 245.3C476.76 245.3 478.499 241.339 478.499 235.735C478.499 230.132 477.05 226.17 471.737 226.17C466.522 226.17 464.976 230.035 464.976 235.735ZM468.647 235.735C468.647 231.677 469.13 228.876 471.737 228.876C474.442 228.876 474.925 231.677 474.925 235.735C474.925 240.373 474.442 242.595 471.737 242.595C469.13 242.595 468.647 240.276 468.647 235.735ZM481.589 246.363C481.589 247.812 482.169 251 487.578 251C492.504 251 494.339 248.295 494.339 243.947V226.654H490.862V228.876H490.765C490.379 227.523 488.93 226.17 486.805 226.17C481.686 226.17 481.01 231.581 481.01 235.542C481.01 240.469 482.169 244.72 486.419 244.72C488.157 244.72 489.896 243.851 490.572 242.208H490.669V245.107C490.669 247.232 489.51 248.488 487.578 248.488C485.936 248.488 484.97 247.425 484.97 246.363H481.589ZM484.777 235.155C484.777 231.774 485.26 229.069 487.868 229.069C490.379 229.069 490.765 232.354 490.765 235.349C490.765 238.247 490.476 241.822 487.578 241.822C484.873 241.725 484.777 238.247 484.777 235.155ZM497.816 244.817H501.487V226.654H497.816V244.817ZM497.816 224.045H501.487V220.374H497.816V224.045ZM517.037 230.615C517.037 227.426 514.429 226.17 511.242 226.17C506.413 226.17 504.867 228.296 504.867 232.16H508.344C508.344 230.421 508.731 228.682 511.145 228.682C513.077 228.682 513.657 229.745 513.657 231.388C513.657 232.933 512.884 233.32 511.532 233.706L508.731 234.479C506.219 235.252 504.481 236.122 504.481 240.179C504.481 243.657 506.316 245.3 509.214 245.3C511.339 245.3 512.787 244.43 513.753 242.595H513.85C513.946 244.334 515.299 245.01 516.941 245.01C517.617 245.01 518.293 244.817 518.776 244.527V242.208C518.679 242.305 518.39 242.305 518.196 242.305C517.617 242.305 517.23 241.725 517.23 241.049V230.615H517.037ZM513.657 238.247C513.657 240.952 512.594 242.595 510.373 242.595C508.827 242.595 508.151 241.339 508.151 239.889C508.151 238.537 508.634 237.474 509.6 236.991C510.662 236.508 512.691 236.025 513.657 235.349V238.247Z" fill="white"/>
<path fill-rule="evenodd" clip-rule="evenodd" d="M208.727 151.102H223.699V83.2802H208.727V151.102ZM208.727 71.59H223.699V57.3879H208.727V71.59Z" fill="white"/>
<path fill-rule="evenodd" clip-rule="evenodd" d="M287.64 117.191C287.64 128.978 282.521 141.055 268.902 141.055C256.828 141.055 249.874 130.814 249.874 117.191C249.874 102.796 256.249 93.2313 268.902 93.2313C281.265 93.2313 287.64 104.921 287.64 117.191ZM235.482 151.102H249.681V141.828H249.971C254.414 150.716 264.266 152.938 273.442 152.938C293.532 152.938 302.708 135.741 302.708 117.481C302.708 97.6755 292.373 81.4445 270.93 81.4445C263.3 81.4445 254.8 85.5023 250.743 92.0719H250.454V57.3879H235.482V151.102Z" fill="white"/>
<path fill-rule="evenodd" clip-rule="evenodd" d="M307.634 151.102H322.605V83.2802H307.634V151.102ZM307.634 71.59H322.605V57.3879H307.634V71.59Z" fill="white"/>
<path fill-rule="evenodd" clip-rule="evenodd" d="M395.336 105.984C393.887 89.3668 380.558 81.4446 364.814 81.4446C342.502 81.4446 331.395 97.4823 331.395 117.868C331.395 137.77 343.082 152.841 364.331 152.841C381.814 152.841 392.632 143.18 395.433 125.597H380.461C379.013 135.258 373.024 141.055 364.331 141.055C351.388 141.055 346.366 129.075 346.366 117.868C346.366 97.2891 357.28 93.2313 365.007 93.2313C373.314 93.2313 379.302 97.6755 380.461 105.984H395.336Z" fill="white"/>
<path fill-rule="evenodd" clip-rule="evenodd" d="M395.819 94.3906H407.12V134.388C407.41 145.692 410.307 151.682 425.858 151.682C429.142 151.682 432.233 151.199 435.517 150.909V139.412C433.392 139.895 431.363 139.895 429.239 139.895C422.574 139.895 421.994 136.707 421.994 130.62V94.3906H435.517V83.2801H421.994V62.9915H407.023V83.2801H395.722V94.3906H395.819Z" fill="white"/>
<path fill-rule="evenodd" clip-rule="evenodd" d="M41.6296 29.2737C41.6296 26.3753 42.5955 24.1532 45.2999 25.2159C49.26 26.8584 86.5431 45.8911 88.8613 47.147C90.4067 47.9199 93.1111 48.5962 95.1395 47.6301L143.917 26.7617C144.786 26.6651 144.593 27.7279 143.53 28.2109C142.564 28.7906 94.56 58.5473 90.5999 60.8661C92.1453 61.2525 94.56 59.5135 96.0088 58.8372C101.611 56.6151 142.081 38.6451 143.723 37.679C144.206 37.2925 145.269 38.3553 143.53 39.2248C141.888 40.0943 95.0429 67.8222 91.276 70.4307C92.8214 70.5273 95.0429 69.5612 96.1054 68.9815C97.2644 68.4019 140.826 49.8522 143.917 48.4996C144.689 48.2098 144.979 49.8522 143.82 50.4319C140.826 51.8811 94.56 78.353 92.8214 79.2225C92.1453 79.5123 91.6623 80.1886 91.6623 80.3818C93.9804 79.5123 141.888 59.8999 144.4 59.4169C144.882 59.3202 145.365 60.383 143.917 61.3491C142.468 62.2186 98.8099 86.2752 93.0146 89.7533C92.1453 90.1397 91.6623 90.816 91.7589 91.2991C94.077 90.7194 141.502 70.9138 143.917 70.0443C144.882 69.7544 144.882 70.7206 144.013 71.3002C143.144 71.8799 101.997 96.2263 99.0996 97.5789C97.2644 98.4484 93.4975 100.574 88.7647 98.3518C84.0318 95.6467 50.9986 76.2275 46.9419 73.5223C42.9818 70.8172 41.533 67.9188 41.533 65.5035C41.533 63.1848 41.6296 33.0416 41.6296 29.2737Z" fill="white"/>
<path fill-rule="evenodd" clip-rule="evenodd" d="M53.5099 188.685C50.9986 190.231 48.4873 190.52 48.101 187.525C47.4249 183.275 44.9136 141.441 44.7204 138.929C44.6238 137.094 43.4647 133.809 41.7262 132.553L0.193177 101.154C-0.386353 100.381 0.57953 100.091 1.54541 100.671C2.60788 101.25 51.6748 128.109 55.6349 130.331C55.1519 128.785 54.0895 127.915 52.9304 126.949C48.101 123.278 11.3008 96.7094 9.65883 95.7433C9.0793 95.4535 9.46566 94.1009 11.1077 95.067C12.7497 96.0332 59.4018 123.085 63.5551 124.92C62.879 123.471 60.9472 122.119 59.8848 121.442C58.8223 120.766 21.2494 92.7483 18.4484 90.6228C17.7723 90.1398 19.0279 89.077 20.0904 89.7533C22.7948 91.6856 68.6743 118.061 70.4129 119.027C70.9924 119.51 71.8617 119.607 72.0549 119.51C70.0265 117.868 29.6526 86.7583 27.914 84.9227C27.5277 84.5362 28.3004 83.5701 29.8458 84.343C30.8117 84.9227 72.5378 111.008 79.3956 114.873C80.1683 115.356 79.9751 114.969 80.3615 114.196C78.6229 112.361 38.1524 81.1548 36.124 79.4157C35.3513 78.7395 36.2206 78.2564 37.0899 78.7395C38.0558 79.2225 80.3615 102.699 82.9694 104.342C84.708 105.501 88.4749 107.53 88.9578 112.844C89.4408 118.157 89.4408 156.416 89.151 161.343C88.8613 166.174 87.1227 168.879 85.0943 170.135C82.583 171.584 56.6973 186.753 53.5099 188.685Z" fill="white"/>
<path fill-rule="evenodd" clip-rule="evenodd" d="M185.063 99.5112C187.575 101.057 188.637 102.506 186.415 104.342C183.035 106.95 149.036 129.365 146.814 130.814C145.269 131.78 142.178 134.582 141.985 136.804L135.803 189.554C135.513 190.327 134.741 189.651 134.741 188.492C134.741 187.332 133.292 130.91 133.195 126.37C132.133 127.529 132.229 129.268 131.94 130.814C131.167 136.804 126.241 181.825 126.241 183.758C126.241 184.434 124.889 184.82 124.985 182.888C124.985 180.956 124.985 126.659 124.599 122.215C123.633 123.471 123.44 125.79 123.343 127.046C123.247 128.302 117.162 174.676 116.775 178.057C116.679 178.927 115.52 178.927 115.616 177.671C115.906 174.386 116.003 121.153 116.099 119.027C116.196 118.351 115.906 117.481 115.713 117.385C115.23 119.897 108.372 170.328 107.599 172.647C107.406 173.227 106.247 173.903 106.151 172.261C106.151 170.522 107.503 120.476 107.599 113.52C107.599 112.651 106.73 112.168 106.344 111.974C105.571 114.293 99.2928 165.305 98.7133 167.816C98.5201 168.879 97.6508 168.396 97.5542 167.333C97.5542 166.271 96.9747 118.351 97.1679 115.356C97.361 113.23 97.361 108.883 101.708 105.888C106.054 102.893 139.377 84.0532 143.723 81.8311C148.166 79.7056 151.257 79.8988 153.382 81.0582C155.7 82.604 181.779 97.6756 185.063 99.5112Z" fill="white"/>
<path d="M527.855 143.856C527.855 142.697 528.628 141.924 529.69 141.924C530.753 141.924 531.526 142.697 531.526 143.856C531.526 145.016 530.753 145.789 529.594 145.789C528.628 145.692 527.855 144.919 527.855 143.856Z" fill="#CF9744"/>
<path d="M618.648 143.856C618.648 142.697 619.421 141.924 620.483 141.924C621.546 141.924 622.319 142.697 622.319 143.856C622.319 145.016 621.546 145.789 620.387 145.789C619.421 145.692 618.648 144.919 618.648 143.856Z" fill="#CF9744"/>
<path d="M534.133 0H543.889V33.5246L490.572 119.703V139.799H501.97V110.525L511.822 94.6805V149.557H480.817V116.901L534.133 30.8195V0Z" fill="#CF9744"/>
<path d="M522.639 27.5346V0H465.169V31.0127H501.873L507.958 21.2548H475.021V9.75789H512.884V24.7329L479.947 77.8699V96.5162L522.639 27.5346Z" fill="#CF9744"/>
<path d="M583.49 119.124C565.621 119.124 551.133 104.632 551.133 86.7583V26.1821C551.133 15.5547 557.025 6.18322 565.428 0H578.371C568.905 5.3137 560.888 16.2309 560.888 26.1821V86.7583C560.888 99.2213 571.03 109.269 583.393 109.269C595.853 109.269 605.899 99.1247 605.899 86.7583V39.3214C605.899 34.7806 602.132 31.0127 597.592 31.0127H586.967C587.257 27.3414 588.609 23.96 590.831 21.2548H597.495C607.444 21.2548 615.557 29.3703 615.557 39.3214V86.7583C615.751 104.632 601.262 119.124 583.49 119.124Z" fill="#CF9744"/>
<path d="M572.382 32.3653V79.8022C572.382 89.7533 580.496 97.8688 590.444 97.8688H597.109C599.331 95.1636 600.683 91.7821 600.973 88.1109H590.348C585.808 88.1109 582.041 84.343 582.041 79.8022V32.3653C582.041 19.9022 592.183 9.8545 604.546 9.8545C617.006 9.8545 627.051 19.9988 627.051 32.3653V92.9415C627.051 102.893 619.035 113.81 609.569 119.124H622.029C630.722 112.651 636.807 102.989 636.807 92.072V32.3653C637 14.4919 622.512 0 604.643 0C586.871 0 572.382 14.4919 572.382 32.3653Z" fill="#CF9744"/>
<path d="M549.491 149.75L548.718 148.011H543.309L542.537 149.75H539.059L546.014 134.388H546.207L553.161 149.75H549.491ZM547.366 144.919L546.11 142.021L544.855 144.919H547.366Z" fill="#CF9744"/>
<path d="M571.996 134.582V149.943H571.803L563.496 142.214V149.75H560.019V134.388H560.212L568.519 142.117V134.582H571.996Z" fill="#CF9744"/>
<path d="M587.257 134.388C591.507 134.388 595.081 137.866 595.081 142.214C595.081 146.465 591.604 150.04 587.257 150.04C583.007 150.04 579.433 146.562 579.433 142.214C579.53 137.866 583.007 134.388 587.257 134.388ZM587.257 146.658C589.672 146.658 591.604 144.726 591.604 142.117C591.604 139.509 589.672 137.577 587.257 137.577C584.842 137.577 582.911 139.509 582.911 142.117C582.911 144.726 584.939 146.658 587.257 146.658Z" fill="#CF9744"/>
<path d="M609.569 138.639C608.506 137.77 607.637 137.383 606.768 137.383C605.899 137.383 605.222 137.867 605.222 138.639C605.222 141.055 612.08 140.572 612.08 145.499C612.08 148.011 609.762 150.136 606.671 150.136C604.836 150.136 603.194 149.46 601.359 148.011L603.387 145.402C604.643 146.368 605.609 146.852 606.671 146.852C607.734 146.852 608.41 146.368 608.41 145.499C608.41 143.084 601.552 143.567 601.552 138.639C601.552 136.224 603.87 134.099 606.768 134.099C608.41 134.099 609.955 134.678 611.597 135.934L609.569 138.639Z" fill="#CF9744"/>
</g>
<defs>
<clipPath id="clip0_9_902">
<rect width="637" height="251" fill="white"/>
</clipPath>
</defs>
</svg>
